<svg xmlns="http://www.w3.org/2000/svg" width="2500" height="1406" viewBox="0 0 2500 1406"><rect width="100%" height="100%" fill="#DDDDDD"/><path fill="#999999" d="M579.225 767.825h48.78q5.26 0 8.35 2.96t3.09 7.83v19.46h-130.45v-10.78q0-3.29 1.39-6.91 1.38-3.61 4.4-6.51l57.73-57.86q7.23-7.36 12.95-14.07 5.72-6.7 9.54-13.28 3.81-6.57 5.85-13.35 2.04-6.77 2.04-14.26 0-6.84-1.98-12.04-1.97-5.19-5.59-8.74-3.61-3.55-8.67-5.33-5.07-1.77-11.38-1.77-5.79 0-10.72 1.64-4.93 1.65-8.74 4.61-3.81 2.95-6.44 6.9-2.63 3.94-3.95 8.68-2.24 6.05-5.79 8.02-3.55 1.97-10.25.92l-17.1-3.02q1.97-13.68 7.63-24 5.65-10.33 14.14-17.23 8.48-6.9 19.46-10.39 10.98-3.48 23.6-3.48 13.15 0 24.07 3.88 10.91 3.88 18.67 10.98 7.76 7.1 12.1 17.09 4.34 10 4.34 22.22 0 10.52-3.09 19.47-3.09 8.94-8.29 17.09-5.19 8.15-12.16 15.78-6.97 7.63-14.6 15.52l-42.87 43.79q6.18-1.84 12.3-2.83 6.11-.99 11.64-.99Zm132.42-130.44-6.71 39.58q6.31-1.32 12.1-1.91 5.78-.59 11.18-.59 14.99 0 26.43 4.47t19.2 12.36q7.75 7.89 11.7 18.48 3.94 10.58 3.94 22.81 0 15.13-5.32 27.62-5.33 12.49-14.79 21.37-9.47 8.87-22.43 13.74-12.95 4.86-28.2 4.86-8.94 0-16.97-1.84-8.02-1.84-15.05-4.93-7.04-3.09-13.02-7.1-5.98-4.01-10.72-8.48l10-13.81q3.15-4.47 8.28-4.47 3.29 0 6.71 2.1 3.42 2.11 7.82 4.61 4.41 2.5 10.39 4.6 5.98 2.1 14.4 2.1 8.94 0 15.78-2.89t11.37-8.09q4.54-5.19 6.84-12.36 2.3-7.16 2.3-15.58 0-15.52-9.01-24.26-9-8.75-26.62-8.75-13.55 0-27.75 5l-20.25-5.79 15.78-92.31h93.89v13.81q0 6.97-4.34 11.31-4.34 4.34-14.73 4.34h-52.2Zm238.41 65.62q0 24.85-5.33 43.19-5.33 18.35-14.73 30.31-9.4 11.97-22.22 17.82-12.82 5.85-27.68 5.85t-27.55-5.85q-12.69-5.85-22.03-17.82-9.33-11.96-14.59-30.31-5.26-18.34-5.26-43.19 0-24.99 5.26-43.27 5.26-18.28 14.59-30.24 9.34-11.97 22.03-17.82 12.69-5.85 27.55-5.85 14.86 0 27.68 5.85t22.22 17.82q9.4 11.96 14.73 30.24 5.33 18.28 5.33 43.27Zm-33.54 0q0-20.65-3.02-34.19-3.03-13.55-8.09-21.57-5.06-8.02-11.64-11.24-6.57-3.23-13.67-3.23-6.97 0-13.48 3.23-6.51 3.22-11.51 11.24-4.99 8.02-7.95 21.57-2.96 13.54-2.96 34.19 0 20.64 2.96 34.19 2.96 13.54 7.95 21.56 5 8.02 11.51 11.24 6.51 3.23 13.48 3.23 7.1 0 13.67-3.23 6.58-3.22 11.64-11.24 5.06-8.02 8.09-21.56 3.02-13.55 3.02-34.19Zm186.08 0q0 24.85-5.33 43.19-5.33 18.35-14.73 30.31-9.4 11.97-22.22 17.82-12.82 5.85-27.68 5.85t-27.55-5.85q-12.69-5.85-22.03-17.82-9.33-11.96-14.59-30.31-5.26-18.34-5.26-43.19 0-24.99 5.26-43.27 5.26-18.28 14.59-30.24 9.34-11.97 22.03-17.82 12.69-5.85 27.55-5.85 14.86 0 27.68 5.85t22.22 17.82q9.4 11.96 14.73 30.24 5.33 18.28 5.33 43.27Zm-33.54 0q0-20.65-3.02-34.19-3.03-13.55-8.09-21.57-5.06-8.02-11.64-11.24-6.57-3.23-13.67-3.23-6.97 0-13.48 3.23-6.51 3.22-11.51 11.24-4.99 8.02-7.95 21.57-2.96 13.54-2.96 34.19 0 20.64 2.96 34.19 2.96 13.54 7.95 21.56 5 8.02 11.51 11.24 6.51 3.23 13.48 3.23 7.1 0 13.67-3.23 6.58-3.22 11.64-11.24 5.06-8.02 8.09-21.56 3.02-13.55 3.02-34.19Zm242.36 51.54-17.23 16.97-44.58-44.58-44.97 44.84-17.23-16.96 44.98-45.11-42.87-42.87 17.09-17.09 42.87 42.87 42.61-42.61 17.36 17.1-42.74 42.73 44.71 44.71Zm180.02 19.2h34.19v24.33h-105.2v-24.33h38.53v-110.85q0-6.58.4-13.55l-27.36 22.88q-2.36 1.85-4.66 2.31-2.31.46-4.34.06-2.04-.39-3.62-1.38-1.58-.99-2.37-2.17l-10.25-14.07 57.99-49.31h26.69v166.08Zm86.4-47.34h57.86v-62.2q0-8.81 1.18-19.46l-59.04 81.66Zm86.13 0h23.93v18.81q0 2.63-1.71 4.53-1.71 1.91-4.86 1.91h-17.36v46.42h-28.27v-46.42h-80.22q-3.29 0-5.78-2.04-2.5-2.04-3.16-5.06l-3.42-16.44 90.08-120.32h30.77v118.61Zm176.6-23.4q0 24.85-5.32 43.19-5.33 18.35-14.73 30.31-9.4 11.97-22.22 17.82-12.82 5.85-27.68 5.85t-27.55-5.85q-12.69-5.85-22.03-17.82-9.34-11.96-14.6-30.31-5.26-18.34-5.26-43.19 0-24.99 5.26-43.27 5.26-18.28 14.6-30.24 9.34-11.97 22.03-17.82 12.69-5.85 27.55-5.85 14.86 0 27.68 5.85t22.22 17.82q9.4 11.96 14.73 30.24 5.32 18.28 5.32 43.27Zm-33.53 0q0-20.65-3.02-34.19-3.03-13.55-8.09-21.57-5.06-8.02-11.64-11.24-6.57-3.23-13.67-3.23-6.97 0-13.48 3.23-6.51 3.22-11.51 11.24t-7.95 21.57q-2.96 13.54-2.96 34.19 0 20.64 2.96 34.19 2.95 13.54 7.95 21.56t11.51 11.24q6.51 3.23 13.48 3.23 7.1 0 13.67-3.23 6.58-3.22 11.64-11.24 5.06-8.02 8.09-21.56 3.02-13.55 3.02-34.19Zm165.17-95.08-56.42 69.04-6.57 8.15q5.52-2.76 11.9-4.27 6.38-1.51 13.74-1.51 10.78 0 20.97 3.55 10.2 3.55 17.95 10.71 7.76 7.17 12.5 17.82 4.73 10.65 4.73 24.86 0 13.28-4.87 24.91-4.86 11.64-13.67 20.32-8.81 8.68-21.24 13.68-12.43 4.99-27.42 4.99-15.25 0-27.35-4.86-12.1-4.87-20.64-13.61-8.55-8.75-13.09-21.04-4.53-12.3-4.53-27.29 0-13.41 5.45-27.55 5.46-14.13 16.9-29.39l45.37-60.88q2.36-3.16 6.9-5.39 4.54-2.24 10.46-2.24h28.93Zm-49.05 165.69q7.75 0 14.26-2.63t11.18-7.36q4.67-4.74 7.3-11.11 2.63-6.38 2.63-13.88 0-8.15-2.5-14.66t-7.1-11.05q-4.6-4.53-11.05-6.9-6.44-2.37-14.2-2.37-7.76 0-14.07 2.63-6.31 2.63-10.78 7.3t-6.97 11.05q-2.5 6.38-2.5 13.74 0 7.89 2.17 14.4 2.17 6.51 6.44 11.11 4.28 4.6 10.59 7.17 6.31 2.56 14.6 2.56Z"/></svg>