<svg xmlns="http://www.w3.org/2000/svg" width="2240" height="1260" viewBox="0 0 2240 1260"><rect width="100%" height="100%" fill="#DDDDDD"/><path fill="#999999" d="M517.135 688.175h43.78q4.72 0 7.49 2.65 2.78 2.66 2.78 7.03v17.46h-117.06v-9.68q0-2.95 1.24-6.19 1.24-3.25 3.95-5.84l51.8-51.92q6.49-6.61 11.63-12.63 5.13-6.02 8.55-11.92 3.42-5.9 5.25-11.97 1.83-6.08 1.83-12.81 0-6.13-1.77-10.79-1.77-4.66-5.01-7.85-3.25-3.19-7.79-4.78-4.54-1.59-10.21-1.59-5.19 0-9.62 1.47-4.42 1.48-7.84 4.13-3.42 2.66-5.78 6.2-2.36 3.54-3.54 7.79-2.01 5.42-5.2 7.19-3.18 1.77-9.2.83l-15.34-2.71q1.77-12.28 6.84-21.54 5.08-9.26 12.69-15.46 7.61-6.19 17.46-9.32 9.86-3.13 21.18-3.13 11.8 0 21.6 3.48 9.79 3.49 16.75 9.86 6.97 6.37 10.86 15.34 3.89 8.97 3.89 19.94 0 9.44-2.77 17.46-2.77 8.03-7.43 15.34-4.66 7.32-10.92 14.16-6.25 6.85-13.1 13.93l-38.46 39.29q5.54-1.65 11.03-2.54 5.49-.88 10.44-.88Zm136.88 0h43.78q4.72 0 7.49 2.65 2.78 2.66 2.78 7.03v17.46h-117.06v-9.68q0-2.95 1.24-6.19 1.24-3.25 3.95-5.84l51.8-51.92q6.49-6.61 11.63-12.63 5.13-6.02 8.55-11.92 3.42-5.9 5.25-11.97 1.83-6.08 1.83-12.81 0-6.13-1.77-10.79-1.77-4.66-5.01-7.85-3.25-3.19-7.79-4.78-4.54-1.59-10.21-1.59-5.19 0-9.62 1.47-4.42 1.48-7.84 4.13-3.42 2.66-5.78 6.2-2.36 3.54-3.54 7.79-2.01 5.42-5.2 7.19-3.18 1.77-9.2.83l-15.34-2.71q1.77-12.28 6.84-21.54 5.08-9.26 12.69-15.46 7.61-6.19 17.46-9.32 9.86-3.13 21.18-3.13 11.8 0 21.6 3.48 9.79 3.49 16.75 9.86 6.97 6.37 10.86 15.34 3.89 8.97 3.89 19.94 0 9.44-2.77 17.46-2.77 8.03-7.43 15.34-4.66 7.32-10.92 14.16-6.25 6.85-13.1 13.93l-38.46 39.29q5.54-1.65 11.03-2.54 5.49-.88 10.44-.88Zm97-37.17h51.92v-55.81q0-7.91 1.06-17.47l-52.98 73.28Zm77.29 0h21.47v16.87q0 2.36-1.53 4.07-1.53 1.72-4.37 1.72h-15.57v41.65h-25.37v-41.65h-71.98q-2.95 0-5.19-1.83-2.25-1.83-2.84-4.55l-3.06-14.75 80.83-107.97h27.61v106.44Zm158.47-21q0 22.3-4.78 38.76-4.78 16.46-13.21 27.2-8.44 10.74-19.95 15.99-11.5 5.25-24.83 5.25-13.34 0-24.73-5.25-11.38-5.25-19.76-15.99t-13.1-27.2q-4.72-16.46-4.72-38.76 0-22.42 4.72-38.83 4.72-16.4 13.1-27.14 8.38-10.73 19.76-15.99 11.39-5.25 24.73-5.25 13.33 0 24.83 5.25 11.51 5.26 19.95 15.99 8.43 10.74 13.21 27.14 4.78 16.41 4.78 38.83Zm-30.09 0q0-18.53-2.71-30.68-2.72-12.16-7.26-19.36-4.54-7.19-10.44-10.09-5.9-2.89-12.27-2.89-6.26 0-12.1 2.89-5.84 2.9-10.32 10.09-4.49 7.2-7.14 19.36-2.66 12.15-2.66 30.68 0 18.52 2.66 30.68 2.65 12.15 7.14 19.35 4.48 7.2 10.32 10.09 5.84 2.89 12.1 2.89 6.37 0 12.27-2.89 5.9-2.89 10.44-10.09 4.54-7.2 7.26-19.35 2.71-12.16 2.71-30.68Zm217.48 46.25-15.46 15.22-40-40-40.36 40.24-15.46-15.22 40.36-40.48-38.47-38.46 15.34-15.34 38.47 38.46 38.23-38.23 15.58 15.34-38.35 38.35 40.12 40.12Zm161.54 17.23h30.68v21.83h-94.4v-21.83h34.57v-99.47q0-5.9.36-12.16l-24.55 20.53q-2.12 1.66-4.19 2.07-2.06.41-3.89.06-1.83-.36-3.25-1.24-1.41-.89-2.12-1.95l-9.2-12.62 52.03-44.25h23.96v149.03Zm117.41-5.31h43.78q4.72 0 7.49 2.65 2.77 2.66 2.77 7.03v17.46h-117.05v-9.68q0-2.95 1.24-6.19 1.23-3.25 3.95-5.84l51.8-51.92q6.49-6.61 11.62-12.63 5.14-6.02 8.56-11.92 3.42-5.9 5.25-11.97 1.83-6.08 1.83-12.81 0-6.13-1.77-10.79-1.77-4.66-5.02-7.85-3.24-3.19-7.79-4.78-4.54-1.59-10.2-1.59-5.19 0-9.62 1.47-4.42 1.48-7.85 4.13-3.42 2.66-5.78 6.2-2.36 3.54-3.54 7.79-2 5.42-5.19 7.19-3.19 1.77-9.2.83l-15.34-2.71q1.77-12.28 6.84-21.54t12.69-15.46q7.61-6.19 17.46-9.32 9.85-3.13 21.18-3.13 11.8 0 21.59 3.48 9.8 3.49 16.76 9.86 6.96 6.37 10.86 15.34 3.89 8.97 3.89 19.94 0 9.44-2.77 17.46-2.78 8.03-7.44 15.34-4.66 7.32-10.91 14.16-6.26 6.85-13.1 13.93l-38.47 39.29q5.55-1.65 11.04-2.54 5.48-.88 10.44-.88Zm177.12-143.49-50.63 61.95-5.9 7.32q4.96-2.48 10.68-3.84 5.73-1.35 12.33-1.35 9.68 0 18.82 3.18 9.15 3.19 16.11 9.62 6.96 6.43 11.21 15.99 4.25 9.56 4.25 22.3 0 11.92-4.37 22.36-4.36 10.44-12.27 18.23-7.9 7.79-19.06 12.27-11.15 4.49-24.6 4.49-13.69 0-24.54-4.37-10.86-4.36-18.53-12.21-7.67-7.85-11.74-18.88t-4.07-24.49q0-12.03 4.9-24.72 4.89-12.68 15.16-26.37l40.71-54.63q2.12-2.84 6.2-4.84 4.07-2.01 9.38-2.01h25.96Zm-44.02 148.68q6.96 0 12.81-2.36 5.84-2.36 10.03-6.61 4.18-4.24 6.54-9.97 2.36-5.72 2.36-12.45 0-7.31-2.24-13.15-2.24-5.84-6.37-9.92-4.13-4.07-9.91-6.19t-12.75-2.12q-6.96 0-12.62 2.36-5.67 2.36-9.68 6.54-4.01 4.19-6.25 9.92-2.24 5.72-2.24 12.33 0 7.08 1.94 12.92 1.95 5.84 5.79 9.97 3.83 4.13 9.49 6.43 5.67 2.3 13.1 2.3Zm199.66-63.36q0 22.3-4.78 38.76-4.78 16.46-13.22 27.2-8.43 10.74-19.94 15.99-11.5 5.25-24.84 5.25-13.33 0-24.72-5.25-11.39-5.25-19.76-15.99-8.38-10.74-13.1-27.2-4.72-16.46-4.72-38.76 0-22.42 4.72-38.83 4.72-16.4 13.1-27.14 8.37-10.73 19.76-15.99 11.39-5.25 24.72-5.25 13.34 0 24.84 5.25 11.51 5.26 19.94 15.99 8.44 10.74 13.22 27.14 4.78 16.41 4.78 38.83Zm-30.09 0q0-18.53-2.72-30.68-2.71-12.16-7.25-19.36-4.55-7.19-10.45-10.09-5.9-2.89-12.27-2.89-6.25 0-12.09 2.89-5.84 2.9-10.33 10.09-4.48 7.2-7.14 19.36-2.65 12.15-2.65 30.68 0 18.52 2.65 30.68 2.66 12.15 7.14 19.35 4.49 7.2 10.33 10.09 5.84 2.89 12.09 2.89 6.37 0 12.27-2.89 5.9-2.89 10.45-10.09 4.54-7.2 7.25-19.35 2.72-12.16 2.72-30.68Z"/></svg>