<svg xmlns="http://www.w3.org/2000/svg" width="2500" height="900" viewBox="0 0 2500 900"><rect width="100%" height="100%" fill="#DDDDDD"/><path fill="#999999" d="M586.505 522.22h54.35q5.86 0 9.3 3.3 3.44 3.3 3.44 8.72v21.68h-145.32v-12.01q0-3.67 1.53-7.69 1.54-4.03 4.91-7.26l64.31-64.46q8.06-8.2 14.43-15.67 6.38-7.47 10.63-14.8 4.24-7.32 6.52-14.87 2.27-7.54 2.27-15.89 0-7.62-2.2-13.41-2.2-5.78-6.23-9.74t-9.67-5.93q-5.64-1.98-12.67-1.98-6.44 0-11.94 1.83-5.49 1.83-9.74 5.13-4.25 3.29-7.18 7.69-2.93 4.39-4.39 9.67-2.49 6.74-6.45 8.93-3.96 2.2-11.43 1.03l-19.04-3.37q2.2-15.24 8.49-26.74 6.3-11.5 15.75-19.19 9.45-7.69 21.69-11.57 12.23-3.88 26.29-3.88 14.65 0 26.81 4.32 12.16 4.32 20.8 12.23 8.65 7.91 13.48 19.05 4.84 11.13 4.84 24.76 0 11.72-3.45 21.68-3.44 9.96-9.23 19.04-5.78 9.08-13.55 17.58-7.76 8.5-16.26 17.29l-47.76 48.78q6.89-2.05 13.7-3.15t12.97-1.1Zm147.52-145.32-7.47 44.09q7.03-1.46 13.48-2.12 6.44-.66 12.45-.66 16.7 0 29.45 4.98 12.74 4.98 21.39 13.77 8.64 8.79 13.03 20.59 4.4 11.79 4.4 25.41 0 16.85-5.93 30.77-5.94 13.92-16.48 23.8-10.55 9.89-24.98 15.31t-31.43 5.42q-9.96 0-18.9-2.05-8.93-2.05-16.77-5.49-7.84-3.44-14.5-7.91-6.67-4.47-11.94-9.45l11.13-15.38q3.52-4.98 9.23-4.98 3.66 0 7.47 2.34 3.81 2.34 8.72 5.13 4.91 2.78 11.57 5.12 6.67 2.35 16.04 2.35 9.97 0 17.58-3.22 7.62-3.23 12.68-9.01 5.05-5.79 7.61-13.78 2.57-7.98 2.57-17.36 0-17.28-10.04-27.02-10.03-9.75-29.66-9.75-15.09 0-30.92 5.57l-22.56-6.45 17.58-102.84h104.6v15.38q0 7.77-4.83 12.6-4.83 4.84-16.41 4.84h-58.16Zm265.61 73.1q0 27.69-5.94 48.13-5.93 20.43-16.41 33.76-10.47 13.34-24.75 19.85-14.29 6.52-30.84 6.52-16.56 0-30.69-6.52-14.14-6.51-24.54-19.85-10.4-13.33-16.26-33.76-5.86-20.44-5.86-48.13 0-27.83 5.86-48.2 5.86-20.36 16.26-33.69 10.4-13.33 24.54-19.85 14.13-6.52 30.69-6.52 16.55 0 30.84 6.52 14.28 6.52 24.75 19.85 10.48 13.33 16.41 33.69 5.94 20.37 5.94 48.2Zm-37.36 0q0-23-3.37-38.09-3.37-15.09-9.01-24.03-5.64-8.93-12.97-12.52-7.32-3.59-15.23-3.59-7.77 0-15.02 3.59t-12.82 12.52q-5.56 8.94-8.86 24.03-3.3 15.09-3.3 38.09 0 23 3.3 38.09 3.3 15.09 8.86 24.03 5.57 8.93 12.82 12.52t15.02 3.59q7.91 0 15.23-3.59 7.33-3.59 12.97-12.52 5.64-8.94 9.01-24.03 3.37-15.09 3.37-38.09Zm207.3 0q0 27.69-5.94 48.13-5.93 20.43-16.41 33.76-10.47 13.34-24.75 19.85-14.29 6.52-30.84 6.52-16.56 0-30.69-6.52-14.14-6.51-24.54-19.85-10.4-13.33-16.26-33.76-5.86-20.44-5.86-48.13 0-27.83 5.86-48.2 5.86-20.36 16.26-33.69 10.4-13.33 24.54-19.85 14.13-6.52 30.69-6.52 16.55 0 30.84 6.52 14.28 6.52 24.75 19.85 10.48 13.33 16.41 33.69 5.94 20.37 5.94 48.2Zm-37.36 0q0-23-3.37-38.09-3.37-15.09-9.01-24.03-5.64-8.93-12.97-12.52-7.32-3.59-15.23-3.59-7.77 0-15.02 3.59t-12.82 12.52q-5.56 8.94-8.86 24.03-3.3 15.09-3.3 38.09 0 23 3.3 38.09 3.3 15.09 8.86 24.03 5.57 8.93 12.82 12.52t15.02 3.59q7.91 0 15.23-3.59 7.33-3.59 12.97-12.52 5.64-8.94 9.01-24.03 3.37-15.09 3.37-38.09Zm270 57.43-19.19 18.9-49.67-49.67-50.1 49.96-19.19-18.9 50.1-50.25-47.76-47.76 19.05-19.04 47.76 47.76 47.46-47.47 19.34 19.05-47.61 47.61 49.81 49.81Zm135.36-99.77q0 17.73 9.16 27.03t26 9.3q8.79 0 15.68-2.78 6.88-2.78 11.57-7.62 4.69-4.83 7.11-11.42 2.42-6.6 2.42-14.22 0-8.64-2.64-15.45-2.64-6.81-7.47-11.5-4.84-4.69-11.5-7.18-6.67-2.49-14.58-2.49-8.2 0-14.8 2.71-6.59 2.71-11.28 7.55-4.68 4.83-7.18 11.5-2.49 6.66-2.49 14.57Zm-17.72 148.26 65.78-82.19q2.49-3.07 4.68-6 2.2-2.93 4.25-5.86-7.32 4.69-16.11 7.1-8.79 2.42-18.46 2.42-10.99 0-21.54-3.81-10.55-3.81-18.75-11.5-8.2-7.69-13.26-19.04-5.05-11.36-5.05-26.59 0-14.22 5.27-26.67 5.28-12.45 14.8-21.83 9.52-9.37 22.85-14.79 13.33-5.42 29.45-5.42 16.26 0 29.23 5.12 12.96 5.13 22.12 14.36 9.15 9.23 14.06 22.12t4.91 28.28q0 9.81-1.69 18.6-1.68 8.79-4.76 16.92-3.07 8.13-7.47 15.9-4.39 7.76-9.81 15.38l-48.5 69.15q-2.49 3.52-7.47 5.93-4.98 2.42-11.28 2.42h-33.25ZM1821.785 450q0 27.69-5.93 48.13-5.93 20.43-16.41 33.76-10.47 13.34-24.76 19.85-14.28 6.52-30.83 6.52-16.56 0-30.7-6.52-14.13-6.51-24.53-19.85-10.41-13.33-16.27-33.76-5.86-20.44-5.86-48.13 0-27.83 5.86-48.2 5.86-20.36 16.27-33.69 10.4-13.33 24.53-19.85 14.14-6.52 30.7-6.52 16.55 0 30.83 6.52 14.29 6.52 24.76 19.85 10.48 13.33 16.41 33.69 5.93 20.37 5.93 48.2Zm-37.35 0q0-23-3.37-38.09-3.37-15.09-9.01-24.03-5.64-8.93-12.97-12.52-7.32-3.59-15.23-3.59-7.77 0-15.02 3.59t-12.82 12.52q-5.57 8.94-8.86 24.03-3.3 15.09-3.3 38.09 0 23 3.3 38.09 3.29 15.09 8.86 24.03 5.57 8.93 12.82 12.52t15.02 3.59q7.91 0 15.23-3.59 7.33-3.59 12.97-12.52 5.64-8.94 9.01-24.03 3.37-15.09 3.37-38.09Zm207.29 0q0 27.69-5.93 48.13-5.93 20.43-16.41 33.76-10.47 13.34-24.76 19.85-14.28 6.52-30.83 6.52-16.56 0-30.7-6.52-14.13-6.51-24.53-19.85-10.41-13.33-16.27-33.76-5.86-20.44-5.86-48.13 0-27.83 5.86-48.2 5.86-20.36 16.27-33.69 10.4-13.33 24.53-19.85 14.14-6.52 30.7-6.52 16.55 0 30.83 6.52 14.29 6.52 24.76 19.85 10.48 13.33 16.41 33.69 5.93 20.37 5.93 48.2Zm-37.35 0q0-23-3.37-38.09-3.37-15.09-9.01-24.03-5.64-8.93-12.97-12.52-7.32-3.59-15.23-3.59-7.77 0-15.02 3.59t-12.82 12.52q-5.57 8.94-8.86 24.03-3.3 15.09-3.3 38.09 0 23 3.3 38.09 3.29 15.09 8.86 24.03 5.57 8.93 12.82 12.52t15.02 3.59q7.91 0 15.23-3.59 7.33-3.59 12.97-12.52 5.64-8.94 9.01-24.03 3.37-15.09 3.37-38.09Z"/></svg>